<svg width="1660" height="960" viewBox="0 0 1872 1063" fill="none" xmlns="http://www.w3.org/2000/svg"> <rect x={4} y="0" width="2" height="960" fill="#D9D9D9" />
<rect x={20} y="0" width="2" height="960" fill="#D9D9D9" />
<rect x={36} y="0" width="2" height="960" fill="#D9D9D9" />
<rect x={52} y="0" width="2" height="960" fill="#D9D9D9" />
<rect x={68} y="0" width="2" height="960" fill="#D9D9D9" />
<rect x={84} y="0" width="2" height="960" fill="#D9D9D9" />
<rect x={100} y="0" width="2" height="960" fill="#D9D9D9" />
<rect x={116} y="0" width="2" height="960" fill="#D9D9D9" />
<rect x={132} y="0" width="2" height="960" fill="#D9D9D9" />
<rect x={148} y="0" width="2" height="960" fill="#D9D9D9" />
<rect x={164} y="0" width="2" height="960" fill="#D9D9D9" />
<rect x={180} y="0" width="2" height="960" fill="#D9D9D9" />
<rect x={196} y="0" width="2" height="960" fill="#D9D9D9" />
<rect x={212} y="0" width="2" height="960" fill="#D9D9D9" />
<rect x={228} y="0" width="2" height="960" fill="#D9D9D9" />
<rect x={244} y="0" width="2" height="960" fill="#D9D9D9" />
<rect x={260} y="0" width="2" height="960" fill="#D9D9D9" />
<rect x={276} y="0" width="2" height="960" fill="#D9D9D9" />
<rect x={292} y="0" width="2" height="960" fill="#D9D9D9" />
<rect x={308} y="0" width="2" height="960" fill="#D9D9D9" />
<rect x={324} y="0" width="2" height="960" fill="#D9D9D9" />
<rect x={340} y="0" width="2" height="960" fill="#D9D9D9" />
<rect x={356} y="0" width="2" height="960" fill="#D9D9D9" />
<rect x={372} y="0" width="2" height="960" fill="#D9D9D9" />
<rect x={388} y="0" width="2" height="960" fill="#D9D9D9" />
<rect x={404} y="0" width="2" height="960" fill="#D9D9D9" />
<rect x={420} y="0" width="2" height="960" fill="#D9D9D9" />
<rect x={436} y="0" width="2" height="960" fill="#D9D9D9" />
<rect x={452} y="0" width="2" height="960" fill="#D9D9D9" />
<rect x={468} y="0" width="2" height="960" fill="#D9D9D9" />
<rect x={484} y="0" width="2" height="960" fill="#D9D9D9" />
<rect x={500} y="0" width="2" height="960" fill="#D9D9D9" />
<rect x={516} y="0" width="2" height="960" fill="#D9D9D9" />
<rect x={532} y="0" width="2" height="960" fill="#D9D9D9" />
<rect x={548} y="0" width="2" height="960" fill="#D9D9D9" />
<rect x={564} y="0" width="2" height="960" fill="#D9D9D9" />
<rect x={580} y="0" width="2" height="960" fill="#D9D9D9" />
<rect x={596} y="0" width="2" height="960" fill="#D9D9D9" />
<rect x={612} y="0" width="2" height="960" fill="#D9D9D9" />
<rect x={628} y="0" width="2" height="960" fill="#D9D9D9" />
<rect x={644} y="0" width="2" height="960" fill="#D9D9D9" />
<rect x={660} y="0" width="2" height="960" fill="#D9D9D9" />
<rect x={676} y="0" width="2" height="960" fill="#D9D9D9" />
<rect x={692} y="0" width="2" height="960" fill="#D9D9D9" />
<rect x={708} y="0" width="2" height="960" fill="#D9D9D9" />
<rect x={724} y="0" width="2" height="960" fill="#D9D9D9" />
<rect x={740} y="0" width="2" height="960" fill="#D9D9D9" />
<rect x={756} y="0" width="2" height="960" fill="#D9D9D9" />
<rect x={772} y="0" width="2" height="960" fill="#D9D9D9" />
<rect x={788} y="0" width="2" height="960" fill="#D9D9D9" />
<rect x={804} y="0" width="2" height="960" fill="#D9D9D9" />
<rect x={820} y="0" width="2" height="960" fill="#D9D9D9" />
<rect x={836} y="0" width="2" height="960" fill="#D9D9D9" />
<rect x={852} y="0" width="2" height="960" fill="#D9D9D9" />
<rect x={868} y="0" width="2" height="960" fill="#D9D9D9" />
<rect x={884} y="0" width="2" height="960" fill="#D9D9D9" />
<rect x={900} y="0" width="2" height="960" fill="#D9D9D9" />
<rect x={916} y="0" width="2" height="960" fill="#D9D9D9" />
<rect x={932} y="0" width="2" height="960" fill="#D9D9D9" />
<rect x={948} y="0" width="2" height="960" fill="#D9D9D9" />
<rect x={964} y="0" width="2" height="960" fill="#D9D9D9" />
<rect x={980} y="0" width="2" height="960" fill="#D9D9D9" />
<rect x={996} y="0" width="2" height="960" fill="#D9D9D9" />
<rect x={1012} y="0" width="2" height="960" fill="#D9D9D9" />
<rect x={1028} y="0" width="2" height="960" fill="#D9D9D9" />
<rect x={1044} y="0" width="2" height="960" fill="#D9D9D9" />
<rect x={1060} y="0" width="2" height="960" fill="#D9D9D9" />
<rect x={1076} y="0" width="2" height="960" fill="#D9D9D9" />
<rect x={1092} y="0" width="2" height="960" fill="#D9D9D9" />
<rect x={1108} y="0" width="2" height="960" fill="#D9D9D9" />
<rect x={1124} y="0" width="2" height="960" fill="#D9D9D9" />
<rect x={1140} y="0" width="2" height="960" fill="#D9D9D9" />
<rect x={1156} y="0" width="2" height="960" fill="#D9D9D9" />
<rect x={1172} y="0" width="2" height="960" fill="#D9D9D9" />
<rect x={1188} y="0" width="2" height="960" fill="#D9D9D9" />
<rect x={1204} y="0" width="2" height="960" fill="#D9D9D9" />
<rect x={1220} y="0" width="2" height="960" fill="#D9D9D9" />
<rect x={1236} y="0" width="2" height="960" fill="#D9D9D9" />
<rect x={1252} y="0" width="2" height="960" fill="#D9D9D9" />
<rect x={1268} y="0" width="2" height="960" fill="#D9D9D9" />
<rect x={1284} y="0" width="2" height="960" fill="#D9D9D9" />
<rect x={1300} y="0" width="2" height="960" fill="#D9D9D9" />
<rect x={1316} y="0" width="2" height="960" fill="#D9D9D9" />
<rect x={1332} y="0" width="2" height="960" fill="#D9D9D9" />
<rect x={1348} y="0" width="2" height="960" fill="#D9D9D9" />
<rect x={1364} y="0" width="2" height="960" fill="#D9D9D9" />
<rect x={1380} y="0" width="2" height="960" fill="#D9D9D9" />
<rect x={1396} y="0" width="2" height="960" fill="#D9D9D9" />
<rect x={1412} y="0" width="2" height="960" fill="#D9D9D9" />
<rect x={1428} y="0" width="2" height="960" fill="#D9D9D9" />
<rect x={1444} y="0" width="2" height="960" fill="#D9D9D9" />
<rect x={1460} y="0" width="2" height="960" fill="#D9D9D9" />
<rect x={1476} y="0" width="2" height="960" fill="#D9D9D9" />
<rect x={1492} y="0" width="2" height="960" fill="#D9D9D9" />
<rect x={1508} y="0" width="2" height="960" fill="#D9D9D9" />
<rect x={1524} y="0" width="2" height="960" fill="#D9D9D9" />
<rect x={1540} y="0" width="2" height="960" fill="#D9D9D9" />
<rect x={1556} y="0" width="2" height="960" fill="#D9D9D9" />
<rect x={1572} y="0" width="2" height="960" fill="#D9D9D9" />
<rect x={1588} y="0" width="2" height="960" fill="#D9D9D9" />
<rect x={1604} y="0" width="2" height="960" fill="#D9D9D9" />
<rect x={1620} y="0" width="2" height="960" fill="#D9D9D9" />
<rect x={1636} y="0" width="2" height="960" fill="#D9D9D9" />
<rect x={1652} y="0" width="2" height="960" fill="#D9D9D9" />
<rect x={1668} y="0" width="2" height="960" fill="#D9D9D9" />
<rect x={1684} y="0" width="2" height="960" fill="#D9D9D9" />
<rect x={1700} y="0" width="2" height="960" fill="#D9D9D9" />
<rect x={1716} y="0" width="2" height="960" fill="#D9D9D9" />
<rect x={1732} y="0" width="2" height="960" fill="#D9D9D9" />
<rect x={1748} y="0" width="2" height="960" fill="#D9D9D9" />
</svg>