<svg width="147" height="74" viewBox="0 0 147 74" fill="none" xmlns="http://www.w3.org/2000/svg">
<path d="M0.54707 21.0956C2.5959 21.0956 3.09765 20.7504 3.09765 19.5159V2.83954C3.09765 1.60503 2.5959 1.25978 0.54707 1.25978H0.494804V0.841305H15.0352V5.30856H14.7739C14.408 2.00258 13.5404 1.55272 9.75634 1.55272H4.66563V10.0374H9.12915C10.9166 10.0374 11.5438 9.84905 11.9411 7.3591H12.2024V13.4793H11.9411C11.5229 10.958 10.9166 10.7488 9.12915 10.7488H4.66563V19.0451C4.66563 20.6249 5.01059 20.8027 6.6622 20.8027H11.1257C14.5335 20.8027 15.3279 20.1436 15.7147 16.6284H15.976V21.5141H0.494804V21.0956H0.54707Z" fill="white"/>
<path d="M27.3177 0.234512H27.5582L34.7291 19.4113C35.0949 20.4365 35.7744 21.0956 37.3842 21.0956H37.4364V21.5141H31.269V21.0956H31.3527C32.8997 21.0956 33.6106 20.7818 33.1402 19.4636L31.1959 14.1071H22.687L21.4221 17.3398C20.1886 20.5202 20.5022 21.0956 22.8438 21.0956H22.896V21.5141H16.7286V21.0956H16.76C18.4952 21.0956 19.1538 20.5202 20.3036 17.706L27.3177 0.234512ZM30.7359 12.8516L27.0878 2.83954L23.1783 12.8516H30.7359Z" fill="white"/>
<path d="M50.7852 16.4505C50.7852 13.6677 49.1858 12.4855 45.7676 11.3556L44.0638 10.8011C40.7292 9.7235 39.1821 8.03913 39.1821 5.44456C39.1821 2.15951 41.8895 0.370516 45.3286 0.370516C47.9001 0.370516 49.6353 0.945923 51.2346 1.86658V5.93628H50.9942C50.4925 2.5466 48.3914 1.10285 45.2972 1.10285C42.9662 1.10285 40.6247 2.09674 40.6247 5.06793C40.6247 7.53695 42.6735 8.75054 44.7432 9.43057L46.4784 10.006C48.9977 10.8429 52.28 11.9728 52.28 15.8856C52.28 19.4322 49.6771 21.8803 45.2972 21.8803C42.7258 21.8803 40.4365 21.2735 38.7117 20.039V15.8856H38.9731C39.7361 20.2691 42.3285 21.1166 45.3495 21.1166C48.7677 21.127 50.7852 19.1288 50.7852 16.4505Z" fill="white"/>
<path d="M66.8518 21.0956H66.9876V21.5141H59.1686V21.0956H59.3045C61.8238 21.0956 62.2942 20.7504 62.2942 19.2857V1.55272H58.9387C55.186 1.55272 54.4752 2.99647 54.4229 7.30679H54.1616V0.841305H72.0156V7.30679H71.7543C71.702 2.99647 70.9912 1.55272 67.2385 1.55272H63.883V19.2857C63.8517 20.7504 64.3325 21.0956 66.8518 21.0956Z" fill="white"/>
<path d="M13.07 42.5008C13.07 39.7179 11.4707 38.5357 8.05248 37.4058L6.34861 36.8514C3.01403 35.7738 1.46695 34.0894 1.46695 31.4948C1.46695 28.2098 4.17434 26.4208 7.61344 26.4208C10.1849 26.4208 11.9202 26.9962 13.5195 27.9168V31.9865H13.2791C12.7773 28.5969 10.6762 27.1531 7.58208 27.1531C5.25102 27.1531 2.9095 28.147 2.9095 31.1182C2.9095 33.5872 4.95833 34.8008 7.02806 35.4808L8.7633 36.0562C11.2825 36.8932 14.5648 38.0231 14.5648 41.9359C14.5648 45.4825 11.962 47.9306 7.58208 47.9306C5.01059 47.9306 2.72134 47.3238 0.996559 46.0893V41.9359H1.25789C2.02097 46.3194 4.61337 47.1668 7.63435 47.1668C11.0421 47.1773 13.07 45.1791 13.07 42.5008Z" fill="white"/>
<path d="M37.9277 27.3205H37.8964V26.902H44.116V27.3205H44.0951C42.339 27.3205 41.3355 27.7913 40.5515 30.7102L35.7953 48.5688H35.6385L29.6802 32.8549L24.0668 48.5688H23.91L18.1607 28.9944C17.8471 27.9482 17.1154 27.31 15.5056 27.31H15.4533V26.8916H21.6207V27.31H21.5685C19.9691 27.31 19.3628 27.5716 19.7601 28.9421L24.3804 45.0222L29.837 29.4966H29.9938L35.743 45.0745L39.4225 31.0764C40.3111 27.7076 40.3111 27.3205 37.9277 27.3205Z" fill="white"/>
<path d="M44.9837 47.1564C47.0325 47.1564 47.5342 46.8111 47.5342 45.5766V28.8898C47.5342 27.6553 47.0325 27.31 44.9837 27.31H44.9314V26.8916H59.4718V31.3588H59.2105C58.8446 28.0528 57.977 27.603 54.1929 27.603H49.1022V36.0876H53.5657C55.3532 36.0876 55.9804 35.8993 56.3776 33.4094H56.639V39.5296H56.3776C55.9595 37.0083 55.3532 36.799 53.5657 36.799H49.1022V45.0954C49.1022 46.6751 49.4472 46.853 51.0988 46.853H55.5623C58.97 46.853 59.7645 46.1939 60.1513 42.6787H60.4126V47.5644H44.9314V47.1459H44.9837V47.1564Z" fill="white"/>
<path d="M62.6705 47.1564C64.7193 47.1564 65.221 46.8111 65.221 45.5766V28.8898C65.221 27.6553 64.7193 27.31 62.6705 27.31H62.6182V26.8916H69.5487C78.5488 26.8916 82.6256 30.3545 82.6256 36.9769C82.6256 43.411 78.507 47.5644 70.918 47.5644H62.6182V47.1459H62.6705V47.1564ZM66.789 45.1058C66.789 46.6856 67.134 46.8634 68.7856 46.8634H70.7821C76.2387 46.8634 80.859 44.5304 80.859 37.0397C80.859 29.2664 75.5279 27.603 69.4964 27.603H66.789V45.1058Z" fill="white"/>
<path d="M84.8836 47.1564C86.9324 47.1564 87.4342 46.8111 87.4342 45.5766V28.8898C87.4342 27.6553 86.9324 27.31 84.8836 27.31H84.8209V26.8916H99.3613V31.3588H99.1C98.7341 28.0528 97.8665 27.603 94.0824 27.603H89.0022V36.0876H93.4657C95.2532 36.0876 95.8804 35.8993 96.2776 33.4094H96.5389V39.5296H96.2776C95.8595 37.0083 95.2532 36.799 93.4657 36.799H89.0022V45.0954C89.0022 46.6751 89.3471 46.853 90.9987 46.853H95.4623C98.87 46.853 99.6644 46.1939 100.051 42.6787H100.313V47.5644H84.8209V47.1459H84.8836V47.1564Z" fill="white"/>
<path d="M121.282 48.234H121.198L106.26 29.3187V44.3944C106.26 46.2358 106.605 47.1564 109.093 47.1564H109.145V47.5749H102.382V47.1564H102.434C104.661 47.1564 105.246 46.2358 105.246 44.3944V29.6535C105.246 27.9692 104.013 27.3414 102.414 27.3414V26.8916H106.323L120.257 44.656V30.072C120.257 28.2307 119.912 27.31 117.424 27.31H117.372V26.8916H124.146V27.31H124.094C121.867 27.31 121.282 28.2307 121.282 30.072V48.234Z" fill="white"/>
<path d="M25.248 73.2067H25.3003V73.6252H18.5475V73.2067H18.5789C20.6799 73.2067 21.2026 72.8928 21.1503 71.7629L20.4709 55.2435L12.6728 73.6356H12.5892L4.64473 55.2644L3.96527 70.5284C3.88164 72.579 4.25796 73.2067 6.74582 73.2067H6.79809V73.6252H0.0453186V73.2067H0.0975846C2.32412 73.2067 2.82587 72.6313 2.9304 70.497L3.66213 55.5783C3.74575 53.8939 2.89904 53.4022 1.14291 53.4022V52.9523H5.44963L12.9341 70.6644L20.3141 52.9628H24.5058V53.4126C22.7706 53.4126 21.903 53.9148 21.9866 55.5887L22.6974 71.7734C22.7497 72.8928 23.1992 73.2067 25.248 73.2067Z" fill="white"/>
<path d="M27.1609 73.2066C29.2098 73.2066 29.7115 72.8614 29.7115 71.6269V54.9505C29.7115 53.716 29.2098 53.3708 27.1609 53.3708H27.1087V52.9523H41.6491V57.4196H41.3877C41.0219 54.1136 40.1543 53.6637 36.3702 53.6637H31.2795V62.1484H35.743C37.5305 62.1484 38.1577 61.96 38.5549 59.4701H38.8163V65.5903H38.5549C38.1368 63.069 37.5305 62.8598 35.743 62.8598H31.2795V71.1561C31.2795 72.7358 31.6245 72.9137 33.2761 72.9137H37.7396C41.1473 72.9137 41.9418 72.2546 42.3285 68.7394H42.5899V73.6251H27.1087V73.2066H27.1609Z" fill="white"/>
<path d="M44.8477 73.2066C46.8966 73.2066 47.3983 72.8614 47.3983 71.6269V54.9505C47.3983 53.716 46.8966 53.3708 44.8477 53.3708H44.7955V52.9523H51.7259C60.7262 52.9523 64.8029 56.4152 64.8029 63.0376C64.8029 69.4717 60.6844 73.6251 53.0953 73.6251H44.7955V73.2066H44.8477ZM48.9768 71.1561C48.9768 72.7358 49.3217 72.9137 50.9733 72.9137H52.9699C58.4265 72.9137 63.0468 70.5807 63.0468 63.0899C63.0468 55.3167 57.7156 53.6533 51.6841 53.6533H48.9768V71.1561Z" fill="white"/>
<path d="M79.2074 73.2066H79.3433V73.6251H71.5243V73.2066H71.6602C74.1795 73.2066 74.6499 72.8614 74.6499 71.3967V53.6637H71.2944C67.5417 53.6637 66.8309 55.1075 66.7786 59.4178H66.5173V52.9523H84.3713V59.4178H84.0891C84.0368 55.1075 83.326 53.6637 79.5733 53.6637H76.2178V71.3967C76.2178 72.8718 76.6882 73.2066 79.2074 73.2066Z" fill="white"/>
<path d="M86.2738 73.2066C88.3226 73.2066 88.8244 72.8614 88.8244 71.6269V54.9505C88.8244 53.716 88.3226 53.3708 86.2738 53.3708H86.2216V52.9523H100.762V57.4196H100.501C100.135 54.1136 99.2671 53.6637 95.4831 53.6637H90.3924V62.1484H94.8559C96.6434 62.1484 97.2706 61.96 97.6678 59.4701H97.9291V65.5903H97.6678C97.2496 63.069 96.6434 62.8598 94.8559 62.8598H90.3924V71.1561C90.3924 72.7358 90.7373 72.9137 92.3889 72.9137H96.8524C100.26 72.9137 101.055 72.2546 101.441 68.7394H101.703V73.6251H86.2216V73.2066H86.2738Z" fill="white"/>
<path d="M123.383 71.6582C121.02 73.4472 117.947 73.9912 115.271 73.9912C107.557 73.9912 103.961 68.7394 103.961 63.2468C103.961 56.6558 108.633 52.471 115.146 52.471C118.187 52.471 120.811 53.1825 123.153 54.6262L123.205 58.4657H122.912C122.149 54.6576 118.794 53.2348 115.093 53.2348C110.734 53.2348 105.727 56.2583 105.727 63.3201C105.727 69.9634 110.745 73.2275 115.125 73.2275C118.093 73.2275 122.348 72.5161 123.184 67.8187H123.477L123.383 71.6582Z" fill="white"/>
<path d="M132.571 73.6252H125.797V73.2067H125.85C127.898 73.2067 128.4 72.8614 128.4 71.6269V54.9506C128.4 53.716 127.898 53.3708 125.85 53.3708H125.797V52.9523H132.571V53.3708H132.519C130.47 53.3708 129.968 53.716 129.968 54.9506V62.6192H142.355V54.9506C142.355 53.716 141.854 53.3708 139.805 53.3708H139.752V52.9523H146.526V53.3708H146.474C144.425 53.3708 143.923 53.716 143.923 54.9506V71.6374C143.923 72.8719 144.425 73.2171 146.474 73.2171H146.526V73.6356H139.752V73.2171H139.805C141.854 73.2171 142.355 72.8719 142.355 71.6374V63.341H129.968V71.6374C129.968 72.8719 130.47 73.2171 132.519 73.2171H132.571V73.6252Z" fill="white"/>
</svg>
